<svg xmlns="http://www.w3.org/2000/svg" viewBox="0 0 64 64" role="img" aria-label="JavaScript">
  <path fill="#F7DF1E" d="M8 8h48v48H8V8Z"/>
  <path fill="#000" d="M21.8 48.1c.9 1.5 2 2.7 4.1 2.7 1.8 0 3-.9 3-4.3V25.2h5.1v21.4c0 5.3-3.1 7.7-7.7 7.7-4.1 0-6.5-2.1-7.7-4.7l4.2-2.5Zm15 0 4.2-2.4c1.1 1.8 2.5 3.1 5 3.1 2.1 0 3.4-1 3.4-2.5 0-1.7-1.4-2.3-3.7-3.3l-1.3-.6c-3.7-1.6-6.1-3.5-6.1-7.7 0-3.8 2.9-6.8 7.5-6.8 3.2 0 5.6 1.1 7.2 4.1l-4 2.6c-.9-1.6-1.8-2.2-3.2-2.2-1.5 0-2.4.9-2.4 2.2 0 1.5.9 2.1 3.1 3.1l1.3.6c4.3 1.9 6.8 3.8 6.8 8.1 0 4.6-3.6 7.1-8.5 7.1-4.8 0-7.8-2.3-9.3-5.3Z"/>
</svg>
