<svg xmlns="http://www.w3.org/2000/svg" viewBox="0 0 64 64" role="img" aria-label="Python">
  <path fill="#3776AB" d="M31.6 6c-11.8 0-11.1 5.1-11.1 5.1l.1 5.3h11.2v1.6H16.1S8 17.1 8 29.1s7.1 11.6 7.1 11.6h4.2v-6s-.2-7.1 7-7.1h11.1s6.2.1 6.2-6V11.4S44.5 6 31.6 6Zm-6.2 4.9a2.1 2.1 0 1 1 0 4.2 2.1 2.1 0 0 1 0-4.2Z"/>
  <path fill="#FFD43B" d="M32.4 58c11.8 0 11.1-5.1 11.1-5.1l-.1-5.3H32.2V46h15.7s8.1.9 8.1-11.1-7.1-11.6-7.1-11.6h-4.2v6s.2 7.1-7 7.1H26.6s-6.2-.1-6.2 6v10.2s-.9 5.4 12 5.4Zm6.2-4.9a2.1 2.1 0 1 1 0-4.2 2.1 2.1 0 0 1 0 4.2Z"/>
</svg>
