<svg xmlns="http://www.w3.org/2000/svg" viewBox="0 0 64 64" role="img" aria-label="TypeScript">
  <path fill="#3178C6" d="M8 8h48v48H8V8Z"/>
  <path fill="#fff" d="M20.4 28.7h20.1v4.1h-7.5v20.1h-5.1V32.8h-7.5v-4.1Zm21.5 21.4 2.8-3.3c1.4 1.5 3.2 2.5 5.4 2.5 1.9 0 3-.8 3-2.1 0-1.4-1.2-1.9-3.7-2.6l-1.6-.5c-3.6-1-6-2.6-6-6.5 0-3.8 2.9-6.3 7.4-6.3 3.2 0 5.6.9 7.5 2.8l-2.7 3.4c-1.5-1.2-3-1.8-4.7-1.8-1.7 0-2.6.7-2.6 1.8 0 1.3 1.1 1.8 4 2.6l1.6.5c4.2 1.2 5.9 3 5.9 6.5 0 4-3.1 6.6-8.2 6.6-3.7 0-6.7-1.2-8.1-3.3Z"/>
</svg>
